<?xml version="1.0" encoding="utf-8"?>
<!-- Generator: Adobe Illustrator 23.1.1, SVG Export Plug-In . SVG Version: 6.00 Build 0)  -->
<svg version="1.1" id="Layer_1" xmlns="http://www.w3.org/2000/svg" xmlns:xlink="http://www.w3.org/1999/xlink" x="0px" y="0px"
	 viewBox="0 0 128 128" style="enable-background:new 0 0 128 128;" xml:space="preserve">
<style type="text/css">
	.st0{fill:url(#SVGID_1_);}
	.st1{fill:#FFFFFF;}
	.st2{fill:#3464C6;}
</style>
<linearGradient id="SVGID_1_" gradientUnits="userSpaceOnUse" x1="64" y1="-0.1582" x2="64" y2="127.3573">
	<stop  offset="0" style="stop-color:#2D9ACF"/>
	<stop  offset="1" style="stop-color:#2B5DC4"/>
</linearGradient>
<rect class="st0" width="128" height="128"/>
<g>
	<g>
		<g>
			<g>
				<g>
					<path class="st1" d="M46.5,71.5c-3.6,0-6.5-2.9-6.5-6.5c0-3.6,2.9-6.5,6.5-6.5c3.6,0,6.5,2.9,6.5,6.5
						C53,68.6,50.1,71.5,46.5,71.5z M46.5,60.9c-2.2,0-4,1.8-4,4c0,2.2,1.8,4,4,4c2.2,0,4-1.8,4-4C50.5,62.7,48.7,60.9,46.5,60.9z"
						/>
				</g>
				<g>
					<path class="st1" d="M86.8,71.5c-3.6,0-6.5-2.9-6.5-6.5c0-3.6,2.9-6.5,6.5-6.5c3.6,0,6.5,2.9,6.5,6.5
						C93.3,68.6,90.4,71.5,86.8,71.5z M86.8,60.9c-2.2,0-4,1.8-4,4c0,2.2,1.8,4,4,4c2.2,0,4-1.8,4-4C90.8,62.7,89,60.9,86.8,60.9z"
						/>
				</g>
			</g>
			<g>
				<path class="st1" d="M35.6,18.2l-1.8-8.6H21.7c-0.7,0-1.2-0.6-1.2-1.2c0-0.7,0.6-1.2,1.2-1.2h13.1c0.6,0,1.1,0.4,1.2,1l2.1,9.9
					L35.6,18.2z"/>
			</g>
		</g>
		<g>
			<g>
				<path class="st2" d="M34.4,15.9H99c4.1,0,7.4,3,7.4,6.7v22.5c0,3.7-3.3,6.7-7.4,6.7H75.8l3.2,7.1l-14-7.1H34.5
					c-4.1,0-7.4-3-7.4-6.7V22.6C27,18.9,30.3,15.9,34.4,15.9L34.4,15.9z"/>
				<path class="st1" d="M81.3,61.3l-16.5-8.4H34.5c-4.7,0-8.5-3.5-8.5-7.8V22.6c0-2,0.8-3.8,2.2-5.3c1.6-1.6,3.9-2.5,6.3-2.5H99
					c4.7,0,8.5,3.5,8.5,7.8v22.5c0,4.3-3.8,7.8-8.5,7.8H77.5L81.3,61.3z M34.4,17c-1.8,0-3.5,0.7-4.7,1.9c-1,1-1.6,2.4-1.6,3.7v22.5
					c0,3.1,2.8,5.6,6.3,5.6h30.8l11.4,5.8l-2.6-5.8H99c3.5,0,6.3-2.5,6.3-5.6V22.6c0-3.1-2.8-5.6-6.3-5.6H34.4z"/>
			</g>
			<path class="st1" d="M31.6,22c0.5-0.6,1.1-0.9,2-0.9c1.6-0.1,2.6,0.6,2.8,2.1c1,6.1,2.1,11.3,3.3,15.6l7.1-12.2
				c0.6-1.1,1.5-1.7,2.4-1.8c1.4-0.1,2.3,0.7,2.6,2.5c0.8,3.9,1.8,7.2,3.1,10c0.8-7.5,2.3-12.8,4.3-16.2c0.5-0.8,1.2-1.2,2.1-1.3
				c0.7-0.1,1.4,0.1,2,0.6c0.6,0.4,0.9,1,1,1.7c0,0.5-0.1,1-0.3,1.4c-1.3,2.1-2.3,5.7-3.1,10.6c-0.8,4.8-1.1,8.5-0.9,11.2
				c0.1,0.7-0.1,1.4-0.4,1.9c-0.4,0.6-1,1-1.7,1.1c-0.8,0.1-1.7-0.3-2.5-1.1c-3-2.8-5.4-7-7.1-12.5c-2.1,3.8-3.6,6.6-4.6,8.5
				c-1.9,3.3-3.5,5-4.9,5.1c-0.9,0.1-1.6-0.6-2.3-2C34.7,42.4,33,35,31.1,24C30.9,23.2,31.1,22.5,31.6,22L31.6,22z M100.9,26.6
				c-1.2-1.9-2.9-3-5.2-3.4C95.1,23.1,94.5,23,94,23c-3.1,0-5.6,1.5-7.6,4.4c-1.7,2.5-2.5,5.3-2.5,8.3c0,2.3,0.5,4.2,1.5,5.8
				c1.2,1.9,2.9,3,5.2,3.4c0.6,0.1,1.2,0.2,1.7,0.2c3.1,0,5.6-1.5,7.6-4.4c1.7-2.5,2.5-5.3,2.5-8.3
				C102.5,30.1,101.9,28.2,100.9,26.6z M96.8,34.8c-0.5,1.9-1.3,3.4-2.5,4.3c-0.9,0.8-1.8,1.1-2.6,0.9c-0.8-0.1-1.4-0.8-1.9-1.9
				c-0.4-0.9-0.6-1.8-0.6-2.7c0-0.7,0.1-1.5,0.2-2.1c0.3-1.2,0.8-2.4,1.7-3.5c1.1-1.4,2.2-2,3.4-1.8c0.8,0.1,1.4,0.8,1.9,1.9
				c0.4,0.9,0.6,1.8,0.6,2.7C97.1,33.4,97,34.1,96.8,34.8L96.8,34.8z M80.7,26.6c-1.2-1.9-2.9-3-5.2-3.4c-0.6-0.1-1.2-0.2-1.7-0.2
				c-3.1,0-5.6,1.5-7.6,4.4c-1.7,2.5-2.5,5.3-2.5,8.3c0,2.3,0.5,4.2,1.5,5.8c1.2,1.9,2.9,3,5.2,3.4c0.6,0.1,1.2,0.2,1.7,0.2
				c3.1,0,5.6-1.5,7.6-4.4c1.7-2.5,2.5-5.3,2.5-8.3C82.3,30.1,81.7,28.2,80.7,26.6z M76.6,34.8c-0.5,1.9-1.3,3.4-2.5,4.3
				c-0.9,0.8-1.8,1.1-2.6,0.9c-0.8-0.1-1.4-0.8-1.9-1.9c-0.4-0.9-0.6-1.8-0.6-2.7c0-0.7,0.1-1.5,0.2-2.1c0.3-1.2,0.8-2.4,1.7-3.5
				c1.1-1.4,2.2-2,3.4-1.8c0.8,0.1,1.4,0.8,1.9,1.9c0.4,0.9,0.6,1.8,0.6,2.7C76.9,33.4,76.8,34.1,76.6,34.8L76.6,34.8z"/>
		</g>
	</g>
	<g>
		<polygon class="st1" points="18.5,78.8 21.4,78.8 27.1,92.2 32.6,78.8 35.5,78.8 35.5,99.3 32.5,99.3 32.5,86.5 32.4,86.5 
			28,97.2 26.1,97.2 21.6,86.5 21.5,86.5 21.5,99.3 18.5,99.3 		"/>
		<rect x="39.8" y="84.7" class="st1" width="2.8" height="14.6"/>
		<polygon class="st1" points="46.8,78.8 58.1,78.8 58.1,81.7 49.9,81.7 49.9,87.8 58.1,87.8 58.1,90.5 49.9,90.5 49.9,99.3 
			46.8,99.3 		"/>
		<rect x="61.1" y="84.7" class="st1" width="2.8" height="14.6"/>
		<path class="st1" d="M67.8,84.7h2.8v1.6h0c0.9-1.2,2.2-1.7,3.7-1.7c1.2,0,2.3,0.4,3.2,1.3c0.9,0.8,1.5,2.1,1.5,3.8v9.7h-2.8v-8.7
			c0-1-0.3-1.8-0.8-2.4s-1.2-0.8-2-0.8c-0.8,0-1.5,0.3-2,0.8c-0.5,0.5-0.8,1.3-0.8,2.4v8.7h-2.8L67.8,84.7L67.8,84.7z"/>
		<rect x="82.9" y="84.7" class="st1" width="2.8" height="14.6"/>
		<path class="st1" d="M89.9,78.8h2.8v5.8h2.1v2.3h-2.1v8.5c0,0.8,0.3,1.1,1,1.1h1.1v2.8h-1.5c-1,0-1.8-0.3-2.5-0.9
			c-0.7-0.6-1-1.5-1-2.6v-8.8h-1.4v-2.3h1.4L89.9,78.8L89.9,78.8z"/>
		<path class="st1" d="M96.7,84.7h3l3.3,10.2h0l3.3-10.2h3l-6.1,17.7c-0.4,1.1-0.9,1.8-1.6,2.3c-0.7,0.4-1.5,0.6-2.4,0.6h-0.9v-2.8
			h0.8c0.4,0,0.7-0.1,1-0.3c0.3-0.2,0.5-0.5,0.7-0.9l0.8-2.5L96.7,84.7z"/>
		<circle class="st1" cx="41.2" cy="80.5" r="1.7"/>
		<circle class="st1" cx="62.5" cy="80.5" r="1.7"/>
		<circle class="st1" cx="84.3" cy="80.5" r="1.7"/>
	</g>
	<g>
		<path class="st1" d="M13.5,114.1c0,0.5-0.1,0.9-0.2,1.2s-0.4,0.7-0.6,0.9s-0.6,0.4-1,0.6c-0.4,0.1-0.9,0.2-1.4,0.2H9.6v2.6
			c0,0,0,0.1,0,0.1c0,0-0.1,0.1-0.1,0.1c-0.1,0-0.1,0-0.3,0.1c-0.1,0-0.2,0-0.4,0c-0.2,0-0.3,0-0.4,0c-0.1,0-0.2,0-0.3-0.1
			c-0.1,0-0.1,0-0.1-0.1s0-0.1,0-0.1v-7.4c0-0.2,0.1-0.3,0.2-0.4c0.1-0.1,0.2-0.1,0.4-0.1h1.9c0.2,0,0.4,0,0.6,0
			c0.2,0,0.4,0,0.6,0.1s0.5,0.1,0.7,0.3c0.3,0.1,0.5,0.3,0.6,0.5s0.3,0.4,0.4,0.7S13.5,113.8,13.5,114.1z M11.8,114.2
			c0-0.3-0.1-0.5-0.2-0.7s-0.2-0.3-0.4-0.4c-0.1-0.1-0.3-0.1-0.5-0.2c-0.2,0-0.3,0-0.5,0H9.6v2.8h0.7c0.3,0,0.5,0,0.7-0.1
			c0.2-0.1,0.3-0.2,0.4-0.3s0.2-0.3,0.3-0.5S11.8,114.4,11.8,114.2z"/>
		<path class="st1" d="M20.7,119.2c0.1,0.2,0.1,0.3,0.1,0.4c0,0.1,0,0.2-0.1,0.2c0,0-0.1,0.1-0.2,0.1s-0.3,0-0.5,0
			c-0.2,0-0.4,0-0.5,0c-0.1,0-0.2,0-0.3,0c-0.1,0-0.1,0-0.1-0.1s0-0.1-0.1-0.1l-0.6-1.7h-3.1l-0.5,1.6c0,0.1,0,0.1-0.1,0.1
			c0,0-0.1,0.1-0.1,0.1c-0.1,0-0.1,0-0.3,0c-0.1,0-0.3,0-0.4,0c-0.2,0-0.3,0-0.5,0c-0.1,0-0.2,0-0.2-0.1s-0.1-0.1,0-0.2
			s0-0.2,0.1-0.4l2.5-7.3c0-0.1,0.1-0.1,0.1-0.2c0,0,0.1-0.1,0.2-0.1c0.1,0,0.2,0,0.3,0c0.1,0,0.3,0,0.5,0c0.2,0,0.4,0,0.6,0
			c0.1,0,0.3,0,0.3,0c0.1,0,0.1,0.1,0.2,0.1c0,0,0.1,0.1,0.1,0.2L20.7,119.2z M16.9,113.2L16.9,113.2l-1.2,3.5h2.3L16.9,113.2z"/>
		<path class="st1" d="M24.1,116.7v2.9c0,0,0,0.1,0,0.1c0,0-0.1,0.1-0.1,0.1c-0.1,0-0.1,0-0.3,0.1c-0.1,0-0.2,0-0.4,0
			c-0.2,0-0.3,0-0.4,0c-0.1,0-0.2,0-0.3-0.1c-0.1,0-0.1,0-0.1-0.1s0-0.1,0-0.1v-2.9l-2.2-4.5c-0.1-0.2-0.1-0.3-0.2-0.4
			c0-0.1,0-0.2,0-0.2c0,0,0.1-0.1,0.3-0.1s0.3,0,0.5,0c0.2,0,0.4,0,0.5,0c0.1,0,0.2,0,0.3,0s0.1,0.1,0.1,0.1c0,0,0.1,0.1,0.1,0.1
			l0.9,2c0.1,0.2,0.2,0.4,0.3,0.6c0.1,0.2,0.2,0.4,0.3,0.7h0c0.1-0.2,0.2-0.5,0.2-0.7s0.2-0.4,0.2-0.6l0.9-2c0-0.1,0-0.1,0.1-0.2
			c0,0,0.1-0.1,0.1-0.1s0.2,0,0.3-0.1s0.3,0,0.4,0c0.2,0,0.4,0,0.6,0c0.1,0,0.2,0,0.3,0.1c0,0,0.1,0.1,0,0.2c0,0.1-0.1,0.2-0.2,0.4
			L24.1,116.7z"/>
		<path class="st1" d="M37.1,119.6c0,0,0,0.1,0,0.1c0,0-0.1,0.1-0.1,0.1c-0.1,0-0.1,0-0.2,0.1c-0.1,0-0.2,0-0.4,0
			c-0.2,0-0.3,0-0.4,0c-0.1,0-0.2,0-0.2-0.1c-0.1,0-0.1,0-0.1-0.1s0-0.1,0-0.1v-6.7h0l-2.4,6.7c0,0.1,0,0.1-0.1,0.1
			s-0.1,0.1-0.2,0.1c-0.1,0-0.1,0-0.3,0c-0.1,0-0.2,0-0.4,0s-0.3,0-0.4,0s-0.2,0-0.3-0.1c-0.1,0-0.1-0.1-0.2-0.1s-0.1-0.1-0.1-0.1
			l-2.3-6.7h0v6.7c0,0,0,0.1,0,0.1c0,0-0.1,0.1-0.1,0.1c-0.1,0-0.1,0-0.2,0.1c-0.1,0-0.2,0-0.4,0c-0.2,0-0.3,0-0.4,0
			c-0.1,0-0.2,0-0.2-0.1c-0.1,0-0.1,0-0.1-0.1c0,0,0-0.1,0-0.1v-7.3c0-0.2,0.1-0.4,0.2-0.5c0.1-0.1,0.3-0.2,0.5-0.2h1.1
			c0.2,0,0.4,0,0.5,0c0.1,0,0.3,0.1,0.4,0.2s0.2,0.2,0.3,0.3c0.1,0.1,0.1,0.3,0.2,0.4l1.8,4.9h0l1.8-4.9c0.1-0.2,0.1-0.3,0.2-0.5
			c0.1-0.1,0.1-0.2,0.2-0.3c0.1-0.1,0.2-0.1,0.3-0.2c0.1,0,0.3,0,0.4,0h1.1c0.1,0,0.2,0,0.3,0c0.1,0,0.1,0.1,0.2,0.1
			c0.1,0.1,0.1,0.1,0.1,0.2c0,0.1,0,0.2,0,0.3V119.6z"/>
		<path class="st1" d="M43.7,119.2c0,0.1,0,0.2,0,0.3c0,0.1,0,0.1,0,0.2s0,0.1-0.1,0.1c0,0-0.1,0-0.1,0h-4.1c-0.1,0-0.3,0-0.4-0.1
			c-0.1-0.1-0.1-0.2-0.1-0.4v-7.2c0-0.2,0-0.3,0.1-0.4c0.1-0.1,0.2-0.1,0.4-0.1h4.1c0,0,0.1,0,0.1,0c0,0,0.1,0.1,0.1,0.1
			s0,0.1,0,0.2c0,0.1,0,0.2,0,0.3c0,0.1,0,0.2,0,0.3c0,0.1,0,0.1,0,0.2s0,0.1-0.1,0.1s-0.1,0-0.1,0h-2.9v2H43c0,0,0.1,0,0.1,0
			c0,0,0.1,0.1,0.1,0.1s0,0.1,0,0.2c0,0.1,0,0.2,0,0.3c0,0.1,0,0.2,0,0.3c0,0.1,0,0.1,0,0.2s0,0.1-0.1,0.1c0,0-0.1,0-0.1,0h-2.5v2.3
			h3c0,0,0.1,0,0.1,0c0,0,0.1,0.1,0.1,0.1s0,0.1,0,0.2C43.7,118.9,43.7,119,43.7,119.2z"/>
		<path class="st1" d="M52,119.2c0,0.1,0,0.2-0.1,0.3s-0.1,0.1-0.1,0.2c-0.1,0.1-0.1,0.1-0.2,0.1c-0.1,0-0.2,0-0.2,0h-0.7
			c-0.1,0-0.3,0-0.4,0c-0.1,0-0.2-0.1-0.3-0.2c-0.1-0.1-0.2-0.2-0.3-0.3c-0.1-0.1-0.2-0.3-0.3-0.5l-2-3.8c-0.1-0.2-0.2-0.5-0.4-0.7
			s-0.2-0.5-0.3-0.8h0c0,0.3,0,0.6,0,0.9s0,0.6,0,0.9v4.3c0,0,0,0.1,0,0.1c0,0-0.1,0.1-0.1,0.1c-0.1,0-0.1,0-0.2,0.1
			c-0.1,0-0.2,0-0.4,0c-0.1,0-0.3,0-0.4,0c-0.1,0-0.2,0-0.2-0.1s-0.1-0.1-0.1-0.1c0,0,0-0.1,0-0.1v-7.4c0-0.2,0.1-0.3,0.2-0.4
			c0.1-0.1,0.3-0.1,0.4-0.1h0.9c0.2,0,0.3,0,0.4,0s0.2,0.1,0.3,0.1c0.1,0.1,0.2,0.2,0.2,0.3s0.2,0.3,0.2,0.4l1.6,3
			c0.1,0.2,0.2,0.4,0.3,0.5c0.1,0.2,0.2,0.4,0.3,0.5s0.2,0.3,0.2,0.5c0.1,0.2,0.2,0.3,0.2,0.5h0c0-0.3,0-0.6,0-0.9
			c0-0.3,0-0.6,0-0.9v-3.9c0,0,0-0.1,0-0.1c0,0,0.1-0.1,0.1-0.1s0.1,0,0.2-0.1s0.2,0,0.4,0c0.1,0,0.3,0,0.4,0s0.2,0,0.2,0.1
			c0.1,0,0.1,0.1,0.1,0.1c0,0,0,0.1,0,0.1V119.2z"/>
		<path class="st1" d="M59.2,112.3c0,0.1,0,0.2,0,0.3c0,0.1,0,0.2,0,0.2s0,0.1-0.1,0.1c0,0-0.1,0-0.1,0h-2.1v6.6c0,0,0,0.1,0,0.1
			c0,0-0.1,0.1-0.1,0.1c-0.1,0-0.1,0-0.3,0.1c-0.1,0-0.2,0-0.4,0s-0.3,0-0.4,0c-0.1,0-0.2,0-0.3-0.1c-0.1,0-0.1,0-0.1-0.1
			c0,0,0-0.1,0-0.1V113h-2.1c0,0-0.1,0-0.1,0s-0.1-0.1-0.1-0.1s0-0.1,0-0.2c0-0.1,0-0.2,0-0.3c0-0.1,0-0.2,0-0.3c0-0.1,0-0.2,0-0.2
			s0-0.1,0.1-0.1s0.1,0,0.1,0H59c0,0,0.1,0,0.1,0c0,0,0.1,0.1,0.1,0.1s0,0.1,0,0.2C59.2,112.1,59.2,112.2,59.2,112.3z"/>
		<path class="st1" d="M65,117.4c0,0.4-0.1,0.8-0.2,1.1c-0.2,0.3-0.4,0.6-0.7,0.8c-0.3,0.2-0.6,0.4-1,0.5c-0.4,0.1-0.8,0.2-1.2,0.2
			c-0.3,0-0.5,0-0.8-0.1c-0.2,0-0.5-0.1-0.6-0.2s-0.3-0.1-0.5-0.2c-0.1-0.1-0.2-0.1-0.3-0.2c-0.1-0.1-0.1-0.1-0.1-0.2
			c0-0.1,0-0.3,0-0.4c0-0.1,0-0.2,0-0.3c0-0.1,0-0.2,0-0.2c0-0.1,0-0.1,0.1-0.1c0,0,0.1,0,0.1,0c0.1,0,0.1,0,0.3,0.1
			c0.1,0.1,0.2,0.1,0.4,0.2s0.4,0.2,0.6,0.2c0.2,0.1,0.5,0.1,0.8,0.1c0.2,0,0.4,0,0.5-0.1s0.3-0.1,0.4-0.2c0.1-0.1,0.2-0.2,0.3-0.3
			c0.1-0.1,0.1-0.3,0.1-0.4c0-0.2-0.1-0.3-0.2-0.5c-0.1-0.1-0.2-0.3-0.4-0.4s-0.3-0.2-0.6-0.3c-0.2-0.1-0.4-0.2-0.6-0.3
			c-0.2-0.1-0.4-0.2-0.6-0.3s-0.4-0.3-0.6-0.5c-0.2-0.2-0.3-0.4-0.4-0.6c-0.1-0.2-0.2-0.5-0.2-0.9c0-0.4,0.1-0.7,0.2-1
			c0.1-0.3,0.3-0.5,0.6-0.7c0.2-0.2,0.5-0.3,0.9-0.4c0.3-0.1,0.7-0.1,1.1-0.1c0.2,0,0.4,0,0.6,0c0.2,0,0.4,0.1,0.5,0.1
			c0.2,0.1,0.3,0.1,0.5,0.2s0.2,0.1,0.3,0.2c0,0,0.1,0.1,0.1,0.1s0,0.1,0,0.1s0,0.1,0,0.2s0,0.2,0,0.3c0,0.1,0,0.2,0,0.3
			c0,0.1,0,0.2,0,0.2c0,0.1,0,0.1-0.1,0.1s-0.1,0-0.1,0c0,0-0.1,0-0.2-0.1s-0.2-0.1-0.4-0.2c-0.1-0.1-0.3-0.1-0.5-0.2
			c-0.2-0.1-0.4-0.1-0.6-0.1c-0.2,0-0.3,0-0.5,0.1c-0.1,0-0.2,0.1-0.3,0.2s-0.2,0.2-0.2,0.3c0,0.1-0.1,0.2-0.1,0.3
			c0,0.2,0,0.3,0.1,0.5c0.1,0.1,0.2,0.3,0.4,0.4s0.4,0.2,0.6,0.3s0.4,0.2,0.6,0.3s0.4,0.2,0.6,0.3s0.4,0.3,0.6,0.5
			c0.2,0.2,0.3,0.4,0.4,0.6S65,117,65,117.4z"/>
		<path class="st1" d="M75.8,112.9c0,0.1,0,0.2,0,0.3c0,0.1,0,0.2,0,0.2c0,0.1,0,0.1-0.1,0.1s-0.1,0-0.1,0c-0.1,0-0.1,0-0.3-0.1
			c-0.1-0.1-0.3-0.2-0.5-0.2s-0.4-0.2-0.7-0.2s-0.6-0.1-1-0.1c-0.4,0-0.8,0.1-1.1,0.2c-0.3,0.1-0.6,0.3-0.8,0.6s-0.4,0.6-0.5,0.9
			s-0.2,0.7-0.2,1.2c0,0.5,0.1,0.9,0.2,1.2s0.3,0.7,0.5,0.9c0.2,0.2,0.5,0.4,0.8,0.5s0.7,0.2,1,0.2c0.2,0,0.4,0,0.6-0.1
			c0.2,0,0.4-0.1,0.5-0.2v-1.9h-1.6c-0.1,0-0.1,0-0.2-0.1c0-0.1-0.1-0.3-0.1-0.5c0-0.1,0-0.2,0-0.3c0-0.1,0-0.1,0-0.2
			c0,0,0-0.1,0.1-0.1c0,0,0.1,0,0.1,0h2.8c0.1,0,0.1,0,0.2,0s0.1,0.1,0.1,0.1s0.1,0.1,0.1,0.2c0,0.1,0,0.1,0,0.2v3.3
			c0,0.1,0,0.2-0.1,0.3c0,0.1-0.1,0.2-0.3,0.2c-0.1,0.1-0.3,0.1-0.5,0.2s-0.4,0.1-0.6,0.2s-0.4,0.1-0.7,0.1c-0.2,0-0.4,0-0.7,0
			c-0.7,0-1.2-0.1-1.8-0.3s-1-0.5-1.3-0.8s-0.6-0.8-0.8-1.3c-0.2-0.5-0.3-1.1-0.3-1.7c0-0.7,0.1-1.3,0.3-1.8s0.5-1,0.9-1.4
			c0.4-0.4,0.8-0.7,1.3-0.9c0.5-0.2,1.1-0.3,1.8-0.3c0.4,0,0.7,0,1,0.1s0.5,0.1,0.8,0.2c0.2,0.1,0.4,0.1,0.5,0.2
			c0.1,0.1,0.2,0.1,0.3,0.2c0.1,0.1,0.1,0.1,0.1,0.3C75.8,112.5,75.8,112.7,75.8,112.9z"/>
		<path class="st1" d="M84.2,119.2c0.1,0.2,0.1,0.3,0.1,0.4c0,0.1,0,0.2-0.1,0.2c0,0-0.1,0.1-0.2,0.1c-0.1,0-0.3,0-0.5,0
			c-0.2,0-0.4,0-0.5,0c-0.1,0-0.2,0-0.3,0c-0.1,0-0.1,0-0.1-0.1s0-0.1-0.1-0.1l-0.6-1.7h-3.1l-0.5,1.6c0,0.1,0,0.1-0.1,0.1
			s-0.1,0.1-0.1,0.1s-0.1,0-0.3,0s-0.3,0-0.4,0c-0.2,0-0.3,0-0.5,0c-0.1,0-0.2,0-0.2-0.1c0,0-0.1-0.1,0-0.2s0-0.2,0.1-0.4l2.5-7.3
			c0-0.1,0.1-0.1,0.1-0.2c0,0,0.1-0.1,0.2-0.1s0.2,0,0.3,0c0.1,0,0.3,0,0.5,0c0.2,0,0.4,0,0.6,0c0.1,0,0.3,0,0.3,0
			c0.1,0,0.1,0.1,0.2,0.1c0,0,0.1,0.1,0.1,0.2L84.2,119.2z M80.5,113.2L80.5,113.2l-1.2,3.5h2.3L80.5,113.2z"/>
		<path class="st1" d="M89.8,112.3c0,0.1,0,0.2,0,0.3s0,0.2,0,0.2s0,0.1-0.1,0.1c0,0-0.1,0-0.1,0h-2.1v6.6c0,0,0,0.1,0,0.1
			s-0.1,0.1-0.1,0.1c-0.1,0-0.1,0-0.3,0.1c-0.1,0-0.2,0-0.4,0c-0.2,0-0.3,0-0.4,0c-0.1,0-0.2,0-0.3-0.1c-0.1,0-0.1,0-0.1-0.1
			s0-0.1,0-0.1V113h-2.1c0,0-0.1,0-0.1,0s-0.1-0.1-0.1-0.1s0-0.1,0-0.2s0-0.2,0-0.3c0-0.1,0-0.2,0-0.3c0-0.1,0-0.2,0-0.2
			s0-0.1,0.1-0.1s0.1,0,0.1,0h5.8c0,0,0.1,0,0.1,0c0,0,0.1,0.1,0.1,0.1s0,0.1,0,0.2C89.8,112.1,89.8,112.2,89.8,112.3z"/>
		<path class="st1" d="M95.7,119.2c0,0.1,0,0.2,0,0.3c0,0.1,0,0.1,0,0.2s0,0.1-0.1,0.1c0,0-0.1,0-0.1,0h-4.1c-0.1,0-0.3,0-0.4-0.1
			c-0.1-0.1-0.1-0.2-0.1-0.4v-7.2c0-0.2,0-0.3,0.1-0.4c0.1-0.1,0.2-0.1,0.4-0.1h4.1c0,0,0.1,0,0.1,0c0,0,0.1,0.1,0.1,0.1
			c0,0.1,0,0.1,0,0.2c0,0.1,0,0.2,0,0.3c0,0.1,0,0.2,0,0.3c0,0.1,0,0.1,0,0.2c0,0.1,0,0.1-0.1,0.1c0,0-0.1,0-0.1,0h-2.9v2H95
			c0,0,0.1,0,0.1,0c0,0,0.1,0.1,0.1,0.1c0,0,0,0.1,0,0.2c0,0.1,0,0.2,0,0.3c0,0.1,0,0.2,0,0.3c0,0.1,0,0.1,0,0.2c0,0,0,0.1-0.1,0.1
			c0,0-0.1,0-0.1,0h-2.5v2.3h3c0,0,0.1,0,0.1,0c0,0,0.1,0.1,0.1,0.1s0,0.1,0,0.2C95.7,118.9,95.7,119,95.7,119.2z"/>
		<path class="st1" d="M105.8,119.4c0,0.1-0.1,0.2-0.1,0.2c0,0.1-0.1,0.1-0.2,0.1c-0.1,0-0.2,0.1-0.3,0.1c-0.1,0-0.3,0-0.5,0
			c-0.2,0-0.4,0-0.6,0c-0.1,0-0.3,0-0.3-0.1c-0.1,0-0.1-0.1-0.2-0.1s-0.1-0.1-0.1-0.2l-1.3-5.2h0l-1.2,5.2c0,0.1-0.1,0.2-0.1,0.2
			c0,0.1-0.1,0.1-0.2,0.1c-0.1,0-0.2,0.1-0.3,0.1s-0.3,0-0.6,0c-0.2,0-0.4,0-0.6,0c-0.1,0-0.3,0-0.3-0.1c-0.1,0-0.1-0.1-0.2-0.1
			c0-0.1-0.1-0.1-0.1-0.2l-1.9-7.2c0-0.2-0.1-0.3-0.1-0.4s0-0.2,0.1-0.2s0.1-0.1,0.3-0.1c0.1,0,0.3,0,0.5,0c0.2,0,0.4,0,0.5,0
			c0.1,0,0.2,0,0.3,0s0.1,0.1,0.1,0.1c0,0,0,0.1,0.1,0.2l1.4,6.3h0l1.5-6.2c0-0.1,0-0.1,0.1-0.2s0.1-0.1,0.1-0.1s0.2,0,0.3-0.1
			s0.3,0,0.5,0c0.2,0,0.4,0,0.5,0c0.1,0,0.2,0,0.3,0.1s0.1,0.1,0.1,0.1c0,0.1,0.1,0.1,0.1,0.2l1.5,6.2h0l1.4-6.3
			c0-0.1,0-0.1,0.1-0.2c0,0,0.1-0.1,0.1-0.1s0.1,0,0.3-0.1s0.3,0,0.5,0c0.2,0,0.3,0,0.4,0s0.2,0,0.2,0.1c0,0,0.1,0.1,0.1,0.2
			c0,0.1,0,0.2-0.1,0.4L105.8,119.4z"/>
		<path class="st1" d="M115,119.2c0.1,0.2,0.1,0.3,0.1,0.4c0,0.1,0,0.2-0.1,0.2c0,0-0.1,0.1-0.2,0.1c-0.1,0-0.3,0-0.5,0
			c-0.2,0-0.4,0-0.5,0c-0.1,0-0.2,0-0.3,0c-0.1,0-0.1,0-0.1-0.1s0-0.1-0.1-0.1l-0.6-1.7h-3.1l-0.5,1.6c0,0.1,0,0.1-0.1,0.1
			s-0.1,0.1-0.1,0.1s-0.1,0-0.3,0s-0.3,0-0.4,0c-0.2,0-0.3,0-0.5,0c-0.1,0-0.2,0-0.2-0.1c0,0-0.1-0.1,0-0.2s0-0.2,0.1-0.4l2.5-7.3
			c0-0.1,0.1-0.1,0.1-0.2c0,0,0.1-0.1,0.2-0.1s0.2,0,0.3,0c0.1,0,0.3,0,0.5,0c0.2,0,0.4,0,0.6,0c0.1,0,0.3,0,0.3,0
			c0.1,0,0.1,0.1,0.2,0.1c0,0,0.1,0.1,0.1,0.2L115,119.2z M111.3,113.2L111.3,113.2l-1.2,3.5h2.3L111.3,113.2z"/>
		<path class="st1" d="M118.5,116.7v2.9c0,0,0,0.1,0,0.1s-0.1,0.1-0.1,0.1c-0.1,0-0.1,0-0.3,0.1c-0.1,0-0.2,0-0.4,0
			c-0.2,0-0.3,0-0.4,0c-0.1,0-0.2,0-0.3-0.1c-0.1,0-0.1,0-0.1-0.1s0-0.1,0-0.1v-2.9l-2.2-4.5c-0.1-0.2-0.1-0.3-0.2-0.4s0-0.2,0-0.2
			c0,0,0.1-0.1,0.3-0.1s0.3,0,0.5,0c0.2,0,0.4,0,0.5,0s0.2,0,0.3,0c0.1,0,0.1,0.1,0.1,0.1c0,0,0.1,0.1,0.1,0.1l0.9,2
			c0.1,0.2,0.2,0.4,0.3,0.6s0.2,0.4,0.3,0.7h0c0.1-0.2,0.2-0.5,0.2-0.7c0.1-0.2,0.2-0.4,0.2-0.6l0.9-2c0-0.1,0-0.1,0.1-0.2
			c0,0,0.1-0.1,0.1-0.1c0.1,0,0.1,0,0.3-0.1s0.3,0,0.4,0c0.2,0,0.4,0,0.6,0c0.1,0,0.2,0,0.3,0.1c0,0,0.1,0.1,0,0.2
			c0,0.1-0.1,0.2-0.2,0.4L118.5,116.7z"/>
	</g>
</g>
</svg>
